<svg xmlns="http://www.w3.org/2000/svg" xmlns:xlink="http://www.w3.org/1999/xlink" width="500" zoomAndPan="magnify" viewBox="0 0 375 374.999991" height="500" preserveAspectRatio="xMidYMid meet" version="1.0"><defs><clipPath id="0b6eaec3de"><path d="M 13.546875 37.5 L 361.546875 37.5 L 361.546875 337.5 L 13.546875 337.5 Z M 13.546875 37.5 " clip-rule="nonzero"/></clipPath></defs><g clip-path="url(#0b6eaec3de)"><path fill="#000000" d="M 337.5625 324.273438 L 337.5625 49.171875 L 361.453125 49.171875 L 361.453125 37.5 L 290.382812 37.5 L 187.578125 264.953125 L 85.3125 37.5 L 14.179688 37.5 L 14.179688 49.171875 L 39.207031 49.171875 L 39.207031 325.828125 L 13.640625 325.828125 L 13.640625 337.5 L 81.179688 337.5 L 81.179688 325.828125 L 56.933594 325.828125 L 56.933594 79.339844 L 173.027344 337.5 L 290.382812 76.945312 L 290.382812 324.273438 L 266.433594 324.273438 L 266.253906 337.5 L 361.273438 337.5 L 361.453125 324.273438 Z M 337.5625 324.273438 " fill-opacity="1" fill-rule="nonzero"/></g></svg>